<?xml version="1.0" encoding="utf-8"?>
<!-- Generator: Adobe Illustrator 17.0.0, SVG Export Plug-In . SVG Version: 6.00 Build 0)  -->
<!DOCTYPE svg PUBLIC "-//W3C//DTD SVG 1.1//EN" "http://www.w3.org/Graphics/SVG/1.1/DTD/svg11.dtd">
<svg version="1.1" id="Layer_1" xmlns="http://www.w3.org/2000/svg" xmlns:xlink="http://www.w3.org/1999/xlink" x="0px" y="0px"
	 width="39.503px" height="17.003px" viewBox="0 0 39.503 17.003" enable-background="new 0 0 39.503 17.003" xml:space="preserve">
<g id="Lovely_Logo">
	<g>
		<path fill-rule="evenodd" clip-rule="evenodd" fill="#FFFFFF" d="M39.321,4.331h-1.193c-0.1,0-0.181,0.08-0.181,0.178v3.063v2.39
			c0,1.026-0.729,1.861-1.773,1.861c-1.043,0-1.772-0.835-1.772-1.861V8.48V7.572V4.509c0-0.098-0.081-0.178-0.181-0.178h-1.193
			c-0.1,0-0.182,0.08-0.182,0.178v3.063V8.48v1.481c0,0.179,0.013,0.355,0.039,0.526c-0.449,0.401-0.974,0.847-1.419,1.164
			c-0.333,0.237-0.711,0.191-0.955,0.068c-0.154-0.077-0.413-0.265-0.413-0.649V0.178C30.098,0.08,30.016,0,29.916,0h-1.193
			c-0.1,0-0.181,0.08-0.181,0.178v9.496c-0.872,0.811-1.718,1.39-2.58,1.764c-1.16,0.503-2.262,0.542-2.946,0.103
			c-0.435-0.279-0.628-0.71-0.704-1.122c1.029-0.219,2.875-0.74,3.851-1.785c0.759-0.814,0.97-1.902,0.55-2.841
			c-0.436-0.975-1.467-1.58-2.691-1.58c-0.938,0-1.786,0.398-2.389,1.036c-0.171-0.153-0.35-0.308-0.482-0.418
			c-0.678-0.564-1.407-0.768-2.054-0.577c-0.442,0.131-1.034,0.508-1.344,1.559l-0.01,0.038l-1.224,5.098
			c-0.15,0.578-0.378,0.925-0.679,0.925c-0.301,0-0.529-0.346-0.679-0.925L13.938,5.85l-0.01-0.038
			c-0.311-1.051-0.902-1.428-1.344-1.559c-0.647-0.191-1.377,0.013-2.054,0.577c-0.14,0.116-0.29,0.247-0.481,0.421
			C9.452,4.613,8.605,4.215,7.632,4.215c-1.901,0-3.328,1.521-3.328,3.391v2.39c0,0.168,0.012,0.334,0.035,0.496
			c-0.448,0.4-0.972,0.845-1.415,1.161c-0.333,0.237-0.711,0.191-0.955,0.068c-0.154-0.077-0.413-0.265-0.413-0.649V0.178
			C1.556,0.08,1.474,0,1.374,0H0.181C0.081,0,0,0.08,0,0.178v10.893c0,0.863,0.471,1.615,1.261,2.011
			c0.359,0.18,0.747,0.27,1.132,0.27c0.509,0,1.013-0.155,1.443-0.461c0.352-0.25,0.738-0.565,1.105-0.879
			c0.594,0.833,1.559,1.373,2.692,1.373c1.901,0,3.328-1.521,3.328-3.391v-2.39c0-0.421-0.073-0.824-0.207-1.196
			c0.281-0.262,0.467-0.426,0.634-0.565c0.296-0.246,0.45-0.319,0.65-0.263c0.229,0.065,0.281,0.28,0.391,0.641l1.221,5.083
			l0.003,0.012c0.471,1.835,1.687,2.033,2.188,2.033c0.501,0,1.717-0.198,2.189-2.033l0.003-0.012l1.221-5.083
			c0.11-0.362,0.162-0.576,0.391-0.641c0.201-0.057,0.354,0.016,0.65,0.263c0.167,0.139,0.428,0.367,0.627,0.553
			c-0.134,0.364-0.208,0.757-0.208,1.168v2.356c0,1.271,0.516,2.301,1.453,2.901c0.576,0.37,1.27,0.554,2.031,0.554
			c0.75,0,1.565-0.179,2.392-0.538c0.685-0.298,1.354-0.696,2.022-1.206c0.158,0.621,0.578,1.143,1.19,1.451
			c0.359,0.18,0.747,0.27,1.132,0.27c0.509,0,1.013-0.155,1.443-0.461c0.356-0.254,0.749-0.573,1.12-0.891
			c0.596,0.821,1.553,1.352,2.677,1.352c0.662,0,1.422-0.224,1.773-0.71c0,0,0,0.099,0,0.406c0,1.199-0.044,1.898-0.943,2.296
			c-0.782,0.346-2.035,0.022-2.697-1.106h0l-0.001-0.001c-0.05-0.085-0.161-0.115-0.248-0.065l-1.033,0.587
			c-0.087,0.049-0.116,0.158-0.066,0.243l0.001,0.001v0.001c0.806,1.371,2.154,1.999,3.379,1.999c0.464,0,0.911-0.091,1.303-0.264
			c1.844-0.816,1.86-2.518,1.86-3.66c0-0.01,0-0.021,0-0.031c0-0.711,0-1.827,0-2.505c0-0.349,0-0.583,0-0.583v-2.39V4.509
			C39.503,4.411,39.422,4.331,39.321,4.331z M9.405,9.995c0,1.026-0.729,1.861-1.772,1.861c-1.043,0-1.772-0.835-1.772-1.861v-2.39
			c0-1.026,0.729-1.861,1.772-1.861c1.043,0,1.772,0.835,1.772,1.861V9.995z M22.269,7.565c0-0.876,0.671-1.822,1.754-1.822
			c0.606,0,1.08,0.249,1.266,0.666c0.17,0.38,0.068,0.825-0.272,1.19c-0.577,0.618-1.819,1.033-2.748,1.258V7.565z"/>
	</g>
</g>
</svg>
